<svg width="23" height="19" viewBox="0 0 23 19" fill="none" xmlns="http://www.w3.org/2000/svg">
<path d="M0.992 18V1.2H4.88V18H0.992Z" fill="white"/>
<path d="M16.335 18.192C15.199 18.192 14.223 17.952 13.407 17.472C12.591 16.992 11.967 16.264 11.535 15.288C11.103 14.296 10.887 13.048 10.887 11.544C10.887 10.024 11.111 8.776 11.559 7.8C12.023 6.824 12.663 6.096 13.479 5.616C14.295 5.136 15.247 4.896 16.335 4.896C17.551 4.896 18.639 5.168 19.599 5.712C20.575 6.256 21.343 7.024 21.903 8.016C22.479 9.008 22.767 10.184 22.767 11.544C22.767 12.888 22.479 14.056 21.903 15.048C21.343 16.04 20.575 16.816 19.599 17.376C18.639 17.92 17.551 18.192 16.335 18.192ZM8.703 18V0.191999H12.447V7.704L12.207 11.52L12.279 15.36V18H8.703ZM15.687 15.12C16.311 15.12 16.863 14.976 17.343 14.688C17.839 14.4 18.231 13.992 18.519 13.464C18.823 12.92 18.975 12.28 18.975 11.544C18.975 10.792 18.823 10.152 18.519 9.624C18.231 9.096 17.839 8.688 17.343 8.4C16.863 8.112 16.311 7.968 15.687 7.968C15.063 7.968 14.503 8.112 14.007 8.4C13.511 8.688 13.119 9.096 12.831 9.624C12.543 10.152 12.399 10.792 12.399 11.544C12.399 12.28 12.543 12.92 12.831 13.464C13.119 13.992 13.511 14.4 14.007 14.688C14.503 14.976 15.063 15.12 15.687 15.12Z" fill="#23A6F0"/>
</svg>
