<svg width="160" height="19" viewBox="0 0 160 19" fill="none" xmlns="http://www.w3.org/2000/svg">
<path d="M0.992 18V1.2H4.88V18H0.992ZM16.551 4.896C17.575 4.896 18.487 5.104 19.287 5.52C20.103 5.92 20.743 6.544 21.207 7.392C21.671 8.224 21.903 9.296 21.903 10.608V18H18.159V11.184C18.159 10.144 17.927 9.376 17.463 8.88C17.015 8.384 16.375 8.136 15.543 8.136C14.951 8.136 14.415 8.264 13.935 8.52C13.471 8.76 13.103 9.136 12.831 9.648C12.575 10.16 12.447 10.816 12.447 11.616V18H8.703V5.088H12.279V8.664L11.607 7.584C12.071 6.72 12.735 6.056 13.599 5.592C14.463 5.128 15.447 4.896 16.551 4.896ZM29.7408 18.192C28.6368 18.192 27.5728 18.064 26.5488 17.808C25.5408 17.536 24.7408 17.2 24.1488 16.8L25.3968 14.112C25.9888 14.48 26.6848 14.784 27.4848 15.024C28.3008 15.248 29.1008 15.36 29.8848 15.36C30.7488 15.36 31.3568 15.256 31.7088 15.048C32.0768 14.84 32.2608 14.552 32.2608 14.184C32.2608 13.88 32.1168 13.656 31.8288 13.512C31.5568 13.352 31.1888 13.232 30.7248 13.152C30.2608 13.072 29.7488 12.992 29.1888 12.912C28.6448 12.832 28.0928 12.728 27.5328 12.6C26.9728 12.456 26.4608 12.248 25.9968 11.976C25.5328 11.704 25.1568 11.336 24.8688 10.872C24.5968 10.408 24.4608 9.808 24.4608 9.072C24.4608 8.256 24.6928 7.536 25.1568 6.912C25.6368 6.288 26.3248 5.8 27.2208 5.448C28.1168 5.08 29.1888 4.896 30.4368 4.896C31.3168 4.896 32.2128 4.992 33.1248 5.184C34.0368 5.376 34.7968 5.656 35.4048 6.024L34.1568 8.688C33.5328 8.32 32.9008 8.072 32.2608 7.944C31.6368 7.8 31.0288 7.728 30.4368 7.728C29.6048 7.728 28.9968 7.84 28.6128 8.064C28.2288 8.288 28.0368 8.576 28.0368 8.928C28.0368 9.248 28.1728 9.488 28.4448 9.648C28.7328 9.808 29.1088 9.936 29.5728 10.032C30.0368 10.128 30.5408 10.216 31.0848 10.296C31.6448 10.36 32.2048 10.464 32.7648 10.608C33.3248 10.752 33.8288 10.96 34.2768 11.232C34.7408 11.488 35.1168 11.848 35.4048 12.312C35.6928 12.76 35.8368 13.352 35.8368 14.088C35.8368 14.888 35.5968 15.6 35.1168 16.224C34.6368 16.832 33.9408 17.312 33.0288 17.664C32.1328 18.016 31.0368 18.192 29.7408 18.192ZM43.6947 18.192C42.6227 18.192 41.6627 17.984 40.8147 17.568C39.9827 17.152 39.3347 16.52 38.8707 15.672C38.4067 14.808 38.1747 13.712 38.1747 12.384V5.088H41.9187V11.832C41.9187 12.904 42.1427 13.696 42.5907 14.208C43.0547 14.704 43.7027 14.952 44.5347 14.952C45.1107 14.952 45.6227 14.832 46.0707 14.592C46.5187 14.336 46.8707 13.952 47.1267 13.44C47.3828 12.912 47.5108 12.256 47.5108 11.472V5.088H51.2547V18H47.7027V14.448L48.3507 15.48C47.9187 16.376 47.2787 17.056 46.4307 17.52C45.5987 17.968 44.6867 18.192 43.6947 18.192ZM54.8233 18V5.088H58.3993V8.736L57.8953 7.68C58.2793 6.768 58.8953 6.08 59.7433 5.616C60.5913 5.136 61.6233 4.896 62.8393 4.896V8.352C62.6793 8.336 62.5353 8.328 62.4073 8.328C62.2793 8.312 62.1433 8.304 61.9993 8.304C60.9753 8.304 60.1433 8.6 59.5033 9.192C58.8793 9.768 58.5673 10.672 58.5673 11.904V18H54.8233ZM71.4798 18.192C70.0078 18.192 68.7118 17.904 67.5918 17.328C66.4878 16.752 65.6318 15.968 65.0238 14.976C64.4158 13.968 64.1118 12.824 64.1118 11.544C64.1118 10.248 64.4078 9.104 64.9998 8.112C65.6078 7.104 66.4318 6.32 67.4718 5.76C68.5118 5.184 69.6878 4.896 70.9998 4.896C72.2638 4.896 73.3998 5.168 74.4078 5.712C75.4318 6.24 76.2398 7.008 76.8318 8.016C77.4238 9.008 77.7198 10.2 77.7198 11.592C77.7198 11.736 77.7118 11.904 77.6958 12.096C77.6798 12.272 77.6638 12.44 77.6478 12.6H67.1598V10.416H75.6797L74.2398 11.064C74.2398 10.392 74.1038 9.808 73.8318 9.312C73.5598 8.816 73.1838 8.432 72.7038 8.16C72.2238 7.872 71.6638 7.728 71.0238 7.728C70.3838 7.728 69.8158 7.872 69.3198 8.16C68.8398 8.432 68.4638 8.824 68.1918 9.336C67.9198 9.832 67.7838 10.424 67.7838 11.112V11.688C67.7838 12.392 67.9358 13.016 68.2398 13.56C68.5598 14.088 68.9998 14.496 69.5598 14.784C70.1358 15.056 70.8078 15.192 71.5758 15.192C72.2638 15.192 72.8638 15.088 73.3758 14.88C73.9038 14.672 74.3838 14.36 74.8158 13.944L76.8078 16.104C76.2158 16.776 75.4718 17.296 74.5758 17.664C73.6798 18.016 72.6478 18.192 71.4798 18.192Z" fill="white"/>
<path d="M87.9444 18.192C86.8084 18.192 85.8324 17.952 85.0164 17.472C84.2004 16.992 83.5764 16.264 83.1444 15.288C82.7124 14.296 82.4964 13.048 82.4964 11.544C82.4964 10.024 82.7204 8.776 83.1684 7.8C83.6324 6.824 84.2724 6.096 85.0884 5.616C85.9044 5.136 86.8564 4.896 87.9444 4.896C89.1604 4.896 90.2484 5.168 91.2084 5.712C92.1844 6.256 92.9524 7.024 93.5124 8.016C94.0884 9.008 94.3764 10.184 94.3764 11.544C94.3764 12.888 94.0884 14.056 93.5124 15.048C92.9524 16.04 92.1844 16.816 91.2084 17.376C90.2484 17.92 89.1604 18.192 87.9444 18.192ZM80.3124 18V0.191999H84.0564V7.704L83.8164 11.52L83.8884 15.36V18H80.3124ZM87.2964 15.12C87.9204 15.12 88.4724 14.976 88.9524 14.688C89.4484 14.4 89.8404 13.992 90.1284 13.464C90.4324 12.92 90.5844 12.28 90.5844 11.544C90.5844 10.792 90.4324 10.152 90.1284 9.624C89.8404 9.096 89.4484 8.688 88.9524 8.4C88.4724 8.112 87.9204 7.968 87.2964 7.968C86.6724 7.968 86.1124 8.112 85.6164 8.4C85.1204 8.688 84.7284 9.096 84.4404 9.624C84.1524 10.152 84.0084 10.792 84.0084 11.544C84.0084 12.28 84.1524 12.92 84.4404 13.464C84.7284 13.992 85.1204 14.4 85.6164 14.688C86.1124 14.976 86.6724 15.12 87.2964 15.12ZM103.127 18.192C101.751 18.192 100.527 17.904 99.4547 17.328C98.3987 16.752 97.5587 15.968 96.9347 14.976C96.3267 13.968 96.0227 12.824 96.0227 11.544C96.0227 10.248 96.3267 9.104 96.9347 8.112C97.5587 7.104 98.3987 6.32 99.4547 5.76C100.527 5.184 101.751 4.896 103.127 4.896C104.487 4.896 105.703 5.184 106.775 5.76C107.847 6.32 108.687 7.096 109.295 8.088C109.903 9.08 110.207 10.232 110.207 11.544C110.207 12.824 109.903 13.968 109.295 14.976C108.687 15.968 107.847 16.752 106.775 17.328C105.703 17.904 104.487 18.192 103.127 18.192ZM103.127 15.12C103.751 15.12 104.311 14.976 104.807 14.688C105.303 14.4 105.695 13.992 105.983 13.464C106.271 12.92 106.415 12.28 106.415 11.544C106.415 10.792 106.271 10.152 105.983 9.624C105.695 9.096 105.303 8.688 104.807 8.4C104.311 8.112 103.751 7.968 103.127 7.968C102.503 7.968 101.943 8.112 101.447 8.4C100.951 8.688 100.551 9.096 100.247 9.624C99.9587 10.152 99.8147 10.792 99.8147 11.544C99.8147 12.28 99.9587 12.92 100.247 13.464C100.551 13.992 100.951 14.4 101.447 14.688C101.943 14.976 102.503 15.12 103.127 15.12ZM118.257 18.192C117.185 18.192 116.225 17.984 115.377 17.568C114.545 17.152 113.897 16.52 113.433 15.672C112.969 14.808 112.737 13.712 112.737 12.384V5.088H116.481V11.832C116.481 12.904 116.705 13.696 117.153 14.208C117.617 14.704 118.265 14.952 119.097 14.952C119.673 14.952 120.185 14.832 120.633 14.592C121.081 14.336 121.433 13.952 121.689 13.44C121.945 12.912 122.073 12.256 122.073 11.472V5.088H125.817V18H122.265V14.448L122.913 15.48C122.481 16.376 121.841 17.056 120.993 17.52C120.161 17.968 119.249 18.192 118.257 18.192ZM137.234 4.896C138.258 4.896 139.17 5.104 139.97 5.52C140.786 5.92 141.426 6.544 141.89 7.392C142.354 8.224 142.586 9.296 142.586 10.608V18H138.842V11.184C138.842 10.144 138.61 9.376 138.146 8.88C137.698 8.384 137.058 8.136 136.226 8.136C135.634 8.136 135.098 8.264 134.618 8.52C134.154 8.76 133.786 9.136 133.514 9.648C133.258 10.16 133.13 10.816 133.13 11.616V18H129.386V5.088H132.962V8.664L132.29 7.584C132.754 6.72 133.418 6.056 134.282 5.592C135.146 5.128 136.13 4.896 137.234 4.896ZM151.717 18.192C150.501 18.192 149.405 17.92 148.429 17.376C147.453 16.816 146.677 16.04 146.101 15.048C145.541 14.056 145.261 12.888 145.261 11.544C145.261 10.184 145.541 9.008 146.101 8.016C146.677 7.024 147.453 6.256 148.429 5.712C149.405 5.168 150.501 4.896 151.717 4.896C152.805 4.896 153.757 5.136 154.573 5.616C155.389 6.096 156.021 6.824 156.469 7.8C156.917 8.776 157.141 10.024 157.141 11.544C157.141 13.048 156.925 14.296 156.493 15.288C156.061 16.264 155.437 16.992 154.621 17.472C153.821 17.952 152.853 18.192 151.717 18.192ZM152.365 15.12C152.973 15.12 153.525 14.976 154.021 14.688C154.517 14.4 154.909 13.992 155.197 13.464C155.501 12.92 155.653 12.28 155.653 11.544C155.653 10.792 155.501 10.152 155.197 9.624C154.909 9.096 154.517 8.688 154.021 8.4C153.525 8.112 152.973 7.968 152.365 7.968C151.741 7.968 151.181 8.112 150.685 8.4C150.189 8.688 149.789 9.096 149.485 9.624C149.197 10.152 149.053 10.792 149.053 11.544C149.053 12.28 149.197 12.92 149.485 13.464C149.789 13.992 150.189 14.4 150.685 14.688C151.181 14.976 151.741 15.12 152.365 15.12ZM155.749 18V15.36L155.821 11.52L155.581 7.704V0.191999H159.325V18H155.749Z" fill="#23A6F0"/>
</svg>
